<svg xmlns="http://www.w3.org/2000/svg" viewBox="0 0 32 32" fill="none">
  <defs>
    <linearGradient id="gradient" x1="0%" y1="0%" x2="100%" y2="100%">
      <stop offset="0%" style="stop-color:#8B5CF6;stop-opacity:1" />
      <stop offset="50%" style="stop-color:#A855F7;stop-opacity:1" />
      <stop offset="100%" style="stop-color:#D946EF;stop-opacity:1" />
    </linearGradient>
  </defs>
  <!-- Brain/AI symbol -->
  <circle cx="16" cy="16" r="14" fill="url(#gradient)" stroke="#FFFFFF" stroke-width="1"/>
  <!-- Neural network nodes -->
  <circle cx="12" cy="10" r="1.5" fill="#FFFFFF"/>
  <circle cx="20" cy="10" r="1.5" fill="#FFFFFF"/>
  <circle cx="8" cy="16" r="1.5" fill="#FFFFFF"/>
  <circle cx="16" cy="16" r="1.5" fill="#FFFFFF"/>
  <circle cx="24" cy="16" r="1.5" fill="#FFFFFF"/>
  <circle cx="12" cy="22" r="1.5" fill="#FFFFFF"/>
  <circle cx="20" cy="22" r="1.5" fill="#FFFFFF"/>
  <!-- Neural connections -->
  <line x1="12" y1="10" x2="8" y2="16" stroke="#FFFFFF" stroke-width="0.8" opacity="0.7"/>
  <line x1="12" y1="10" x2="16" y2="16" stroke="#FFFFFF" stroke-width="0.8" opacity="0.7"/>
  <line x1="20" y1="10" x2="16" y2="16" stroke="#FFFFFF" stroke-width="0.8" opacity="0.7"/>
  <line x1="20" y1="10" x2="24" y2="16" stroke="#FFFFFF" stroke-width="0.8" opacity="0.7"/>
  <line x1="8" y1="16" x2="12" y2="22" stroke="#FFFFFF" stroke-width="0.8" opacity="0.7"/>
  <line x1="16" y1="16" x2="12" y2="22" stroke="#FFFFFF" stroke-width="0.8" opacity="0.7"/>
  <line x1="16" y1="16" x2="20" y2="22" stroke="#FFFFFF" stroke-width="0.8" opacity="0.7"/>
  <line x1="24" y1="16" x2="20" y2="22" stroke="#FFFFFF" stroke-width="0.8" opacity="0.7"/>
</svg>
